<mxfile host="app.diagrams.net" agent="Mozilla/5.0 (Windows NT 10.0; Win64; x64) AppleWebKit/537.36 (KHTML, like Gecko) Chrome/136.0.0.0 Safari/537.36" version="27.0.3">
  <diagram name="Strona-1" id="5IjLXUbpjCtjZqdaMgaR">
    <mxGraphModel dx="607" dy="354" grid="1" gridSize="10" guides="1" tooltips="1" connect="1" arrows="1" fold="1" page="1" pageScale="1" pageWidth="827" pageHeight="1169" math="0" shadow="0">
      <root>
        <mxCell id="0" />
        <mxCell id="1" parent="0" />
        <mxCell id="Xlro1Y_sr61bUB2rgBXT-2" value="" style="endArrow=block;html=1;rounded=1;strokeWidth=3;targetPerimeterSpacing=-1;sourcePerimeterSpacing=2;jumpStyle=gap;flowAnimation=0;shadow=0;endFill=1;" edge="1" parent="1">
          <mxGeometry width="50" height="50" relative="1" as="geometry">
            <mxPoint x="40" y="120" as="sourcePoint" />
            <mxPoint x="40" y="40" as="targetPoint" />
          </mxGeometry>
        </mxCell>
        <mxCell id="Xlro1Y_sr61bUB2rgBXT-3" value="" style="endArrow=none;html=1;rounded=0;strokeWidth=3;" edge="1" parent="1">
          <mxGeometry width="50" height="50" relative="1" as="geometry">
            <mxPoint x="140" y="240" as="sourcePoint" />
            <mxPoint x="140" y="220" as="targetPoint" />
          </mxGeometry>
        </mxCell>
        <mxCell id="Xlro1Y_sr61bUB2rgBXT-4" value="" style="endArrow=none;html=1;rounded=0;strokeWidth=3;" edge="1" parent="1">
          <mxGeometry width="50" height="50" relative="1" as="geometry">
            <mxPoint x="150" y="220" as="sourcePoint" />
            <mxPoint x="130" y="220" as="targetPoint" />
          </mxGeometry>
        </mxCell>
        <mxCell id="Xlro1Y_sr61bUB2rgBXT-5" value="" style="endArrow=none;html=1;rounded=0;strokeWidth=3;" edge="1" parent="1">
          <mxGeometry width="50" height="50" relative="1" as="geometry">
            <mxPoint x="120" y="120" as="sourcePoint" />
            <mxPoint x="120" y="100" as="targetPoint" />
          </mxGeometry>
        </mxCell>
        <mxCell id="Xlro1Y_sr61bUB2rgBXT-6" value="" style="endArrow=none;html=1;rounded=0;strokeWidth=3;" edge="1" parent="1">
          <mxGeometry width="50" height="50" relative="1" as="geometry">
            <mxPoint x="130" y="100" as="sourcePoint" />
            <mxPoint x="110" y="100" as="targetPoint" />
          </mxGeometry>
        </mxCell>
        <mxCell id="Xlro1Y_sr61bUB2rgBXT-7" value="" style="endArrow=none;html=1;rounded=0;strokeWidth=3;" edge="1" parent="1">
          <mxGeometry width="50" height="50" relative="1" as="geometry">
            <mxPoint x="120" y="60" as="sourcePoint" />
            <mxPoint x="120" y="40" as="targetPoint" />
          </mxGeometry>
        </mxCell>
        <mxCell id="Xlro1Y_sr61bUB2rgBXT-8" value="" style="endArrow=none;html=1;rounded=0;strokeWidth=3;" edge="1" parent="1">
          <mxGeometry width="50" height="50" relative="1" as="geometry">
            <mxPoint x="130" y="60" as="sourcePoint" />
            <mxPoint x="110" y="60" as="targetPoint" />
          </mxGeometry>
        </mxCell>
        <mxCell id="Xlro1Y_sr61bUB2rgBXT-9" value="" style="endArrow=block;html=1;rounded=1;strokeWidth=3;targetPerimeterSpacing=-1;sourcePerimeterSpacing=2;jumpStyle=gap;flowAnimation=0;shadow=0;endFill=1;" edge="1" parent="1">
          <mxGeometry width="50" height="50" relative="1" as="geometry">
            <mxPoint x="140" y="160" as="sourcePoint" />
            <mxPoint x="100" y="240" as="targetPoint" />
          </mxGeometry>
        </mxCell>
        <mxCell id="Xlro1Y_sr61bUB2rgBXT-11" value="" style="whiteSpace=wrap;html=1;aspect=fixed;strokeWidth=2;fillColor=none;" vertex="1" parent="1">
          <mxGeometry x="360" y="40" width="80" height="80" as="geometry" />
        </mxCell>
        <mxCell id="Xlro1Y_sr61bUB2rgBXT-12" value="" style="endArrow=none;html=1;rounded=0;strokeWidth=3;" edge="1" parent="1">
          <mxGeometry width="50" height="50" relative="1" as="geometry">
            <mxPoint x="20" y="240" as="sourcePoint" />
            <mxPoint x="20" y="220" as="targetPoint" />
          </mxGeometry>
        </mxCell>
        <mxCell id="Xlro1Y_sr61bUB2rgBXT-13" value="" style="endArrow=none;html=1;rounded=0;strokeWidth=3;" edge="1" parent="1">
          <mxGeometry width="50" height="50" relative="1" as="geometry">
            <mxPoint x="30" y="220" as="sourcePoint" />
            <mxPoint x="10" y="220" as="targetPoint" />
          </mxGeometry>
        </mxCell>
        <mxCell id="Xlro1Y_sr61bUB2rgBXT-14" value="" style="endArrow=block;html=1;rounded=1;strokeWidth=3;targetPerimeterSpacing=-1;sourcePerimeterSpacing=2;jumpStyle=gap;flowAnimation=0;shadow=0;endFill=1;" edge="1" parent="1">
          <mxGeometry width="50" height="50" relative="1" as="geometry">
            <mxPoint x="60" y="240" as="sourcePoint" />
            <mxPoint x="60" y="160" as="targetPoint" />
          </mxGeometry>
        </mxCell>
        <mxCell id="Xlro1Y_sr61bUB2rgBXT-15" value="" style="endArrow=none;html=1;rounded=0;strokeWidth=3;" edge="1" parent="1">
          <mxGeometry width="50" height="50" relative="1" as="geometry">
            <mxPoint x="20" y="360" as="sourcePoint" />
            <mxPoint x="20" y="340" as="targetPoint" />
          </mxGeometry>
        </mxCell>
        <mxCell id="Xlro1Y_sr61bUB2rgBXT-16" value="" style="endArrow=none;html=1;rounded=0;strokeWidth=3;" edge="1" parent="1">
          <mxGeometry width="50" height="50" relative="1" as="geometry">
            <mxPoint x="30" y="340" as="sourcePoint" />
            <mxPoint x="10" y="340" as="targetPoint" />
          </mxGeometry>
        </mxCell>
        <mxCell id="Xlro1Y_sr61bUB2rgBXT-17" value="" style="endArrow=block;html=1;rounded=1;strokeWidth=3;targetPerimeterSpacing=-1;sourcePerimeterSpacing=-5;jumpStyle=gap;flowAnimation=0;shadow=0;endFill=1;" edge="1" parent="1">
          <mxGeometry width="50" height="50" relative="1" as="geometry">
            <mxPoint x="40" y="360" as="sourcePoint" />
            <mxPoint x="20" y="280" as="targetPoint" />
          </mxGeometry>
        </mxCell>
        <mxCell id="Xlro1Y_sr61bUB2rgBXT-18" value="" style="endArrow=block;html=1;rounded=1;strokeWidth=3;targetPerimeterSpacing=-1;sourcePerimeterSpacing=2;jumpStyle=gap;flowAnimation=0;shadow=0;endFill=1;" edge="1" parent="1">
          <mxGeometry width="50" height="50" relative="1" as="geometry">
            <mxPoint x="60" y="280" as="sourcePoint" />
            <mxPoint x="60" y="360" as="targetPoint" />
          </mxGeometry>
        </mxCell>
        <mxCell id="Xlro1Y_sr61bUB2rgBXT-19" value="" style="endArrow=none;html=1;rounded=0;strokeWidth=4;" edge="1" parent="1">
          <mxGeometry width="50" height="50" relative="1" as="geometry">
            <mxPoint x="400" y="30" as="sourcePoint" />
            <mxPoint x="400" y="40" as="targetPoint" />
            <Array as="points" />
          </mxGeometry>
        </mxCell>
        <mxCell id="Xlro1Y_sr61bUB2rgBXT-20" value="" style="endArrow=none;html=1;rounded=0;strokeWidth=4;" edge="1" parent="1">
          <mxGeometry width="50" height="50" relative="1" as="geometry">
            <mxPoint x="399.92" y="120" as="sourcePoint" />
            <mxPoint x="399.92" y="130" as="targetPoint" />
            <Array as="points" />
          </mxGeometry>
        </mxCell>
        <mxCell id="Xlro1Y_sr61bUB2rgBXT-21" value="" style="whiteSpace=wrap;html=1;aspect=fixed;strokeWidth=2;fillColor=none;" vertex="1" parent="1">
          <mxGeometry x="360" y="160" width="80" height="80" as="geometry" />
        </mxCell>
        <mxCell id="Xlro1Y_sr61bUB2rgBXT-22" value="" style="endArrow=none;html=1;rounded=0;strokeWidth=4;" edge="1" parent="1">
          <mxGeometry width="50" height="50" relative="1" as="geometry">
            <mxPoint x="420" y="150" as="sourcePoint" />
            <mxPoint x="420" y="160" as="targetPoint" />
            <Array as="points" />
          </mxGeometry>
        </mxCell>
        <mxCell id="Xlro1Y_sr61bUB2rgBXT-23" value="" style="endArrow=none;html=1;rounded=0;strokeWidth=4;" edge="1" parent="1">
          <mxGeometry width="50" height="50" relative="1" as="geometry">
            <mxPoint x="380" y="240" as="sourcePoint" />
            <mxPoint x="380" y="250" as="targetPoint" />
            <Array as="points" />
          </mxGeometry>
        </mxCell>
        <mxCell id="Xlro1Y_sr61bUB2rgBXT-24" value="" style="endArrow=none;html=1;rounded=0;strokeWidth=4;" edge="1" parent="1">
          <mxGeometry width="50" height="50" relative="1" as="geometry">
            <mxPoint x="420" y="240" as="sourcePoint" />
            <mxPoint x="420" y="250" as="targetPoint" />
            <Array as="points" />
          </mxGeometry>
        </mxCell>
        <mxCell id="Xlro1Y_sr61bUB2rgBXT-25" value="" style="whiteSpace=wrap;html=1;aspect=fixed;strokeWidth=2;fillColor=none;" vertex="1" parent="1">
          <mxGeometry x="520" y="40" width="80" height="80" as="geometry" />
        </mxCell>
        <mxCell id="Xlro1Y_sr61bUB2rgBXT-29" value="" style="endArrow=none;html=1;rounded=0;strokeWidth=4;" edge="1" parent="1">
          <mxGeometry width="50" height="50" relative="1" as="geometry">
            <mxPoint x="419.9" y="270" as="sourcePoint" />
            <mxPoint x="419.9" y="280" as="targetPoint" />
            <Array as="points" />
          </mxGeometry>
        </mxCell>
        <mxCell id="Xlro1Y_sr61bUB2rgBXT-30" value="" style="endArrow=none;html=1;rounded=0;strokeWidth=4;" edge="1" parent="1">
          <mxGeometry width="50" height="50" relative="1" as="geometry">
            <mxPoint x="379.9" y="270" as="sourcePoint" />
            <mxPoint x="379.9" y="280" as="targetPoint" />
            <Array as="points" />
          </mxGeometry>
        </mxCell>
        <mxCell id="Xlro1Y_sr61bUB2rgBXT-31" value="" style="endArrow=none;html=1;rounded=0;strokeWidth=4;" edge="1" parent="1">
          <mxGeometry width="50" height="50" relative="1" as="geometry">
            <mxPoint x="379.9" y="360" as="sourcePoint" />
            <mxPoint x="379.9" y="370" as="targetPoint" />
            <Array as="points">
              <mxPoint x="379.9" y="360" />
            </Array>
          </mxGeometry>
        </mxCell>
        <mxCell id="Xlro1Y_sr61bUB2rgBXT-32" value="" style="endArrow=none;html=1;rounded=0;strokeWidth=4;" edge="1" parent="1">
          <mxGeometry width="50" height="50" relative="1" as="geometry">
            <mxPoint x="399.9" y="360" as="sourcePoint" />
            <mxPoint x="399.9" y="370" as="targetPoint" />
            <Array as="points">
              <mxPoint x="399.9" y="360" />
            </Array>
          </mxGeometry>
        </mxCell>
        <mxCell id="Xlro1Y_sr61bUB2rgBXT-33" value="" style="endArrow=none;html=1;rounded=0;strokeWidth=4;" edge="1" parent="1">
          <mxGeometry width="50" height="50" relative="1" as="geometry">
            <mxPoint x="419.9" y="360" as="sourcePoint" />
            <mxPoint x="419.9" y="370" as="targetPoint" />
            <Array as="points">
              <mxPoint x="419.9" y="360" />
            </Array>
          </mxGeometry>
        </mxCell>
        <mxCell id="Xlro1Y_sr61bUB2rgBXT-34" value="" style="whiteSpace=wrap;html=1;aspect=fixed;strokeWidth=2;fillColor=none;" vertex="1" parent="1">
          <mxGeometry x="360" y="280" width="80" height="80" as="geometry" />
        </mxCell>
        <mxCell id="Xlro1Y_sr61bUB2rgBXT-35" value="" style="endArrow=none;html=1;rounded=0;strokeWidth=3;" edge="1" parent="1">
          <mxGeometry width="50" height="50" relative="1" as="geometry">
            <mxPoint x="220" y="240" as="sourcePoint" />
            <mxPoint x="220" y="220" as="targetPoint" />
          </mxGeometry>
        </mxCell>
        <mxCell id="Xlro1Y_sr61bUB2rgBXT-36" value="" style="endArrow=none;html=1;rounded=0;strokeWidth=3;" edge="1" parent="1">
          <mxGeometry width="50" height="50" relative="1" as="geometry">
            <mxPoint x="230" y="220" as="sourcePoint" />
            <mxPoint x="210" y="220" as="targetPoint" />
          </mxGeometry>
        </mxCell>
        <mxCell id="Xlro1Y_sr61bUB2rgBXT-37" value="" style="endArrow=none;html=1;rounded=0;strokeWidth=3;" edge="1" parent="1">
          <mxGeometry width="50" height="50" relative="1" as="geometry">
            <mxPoint x="180" y="240" as="sourcePoint" />
            <mxPoint x="180" y="220" as="targetPoint" />
          </mxGeometry>
        </mxCell>
        <mxCell id="Xlro1Y_sr61bUB2rgBXT-38" value="" style="endArrow=none;html=1;rounded=0;strokeWidth=3;" edge="1" parent="1">
          <mxGeometry width="50" height="50" relative="1" as="geometry">
            <mxPoint x="190" y="220" as="sourcePoint" />
            <mxPoint x="170" y="220" as="targetPoint" />
          </mxGeometry>
        </mxCell>
        <mxCell id="Xlro1Y_sr61bUB2rgBXT-39" value="" style="endArrow=none;html=1;rounded=0;strokeWidth=3;" edge="1" parent="1">
          <mxGeometry width="50" height="50" relative="1" as="geometry">
            <mxPoint x="200" y="180" as="sourcePoint" />
            <mxPoint x="200" y="160" as="targetPoint" />
          </mxGeometry>
        </mxCell>
        <mxCell id="Xlro1Y_sr61bUB2rgBXT-40" value="" style="endArrow=none;html=1;rounded=0;strokeWidth=3;" edge="1" parent="1">
          <mxGeometry width="50" height="50" relative="1" as="geometry">
            <mxPoint x="210" y="180" as="sourcePoint" />
            <mxPoint x="190" y="180" as="targetPoint" />
          </mxGeometry>
        </mxCell>
        <mxCell id="Xlro1Y_sr61bUB2rgBXT-45" value="" style="endArrow=none;html=1;rounded=0;strokeWidth=3;" edge="1" parent="1">
          <mxGeometry width="50" height="50" relative="1" as="geometry">
            <mxPoint x="140" y="360" as="sourcePoint" />
            <mxPoint x="140" y="340" as="targetPoint" />
          </mxGeometry>
        </mxCell>
        <mxCell id="Xlro1Y_sr61bUB2rgBXT-46" value="" style="endArrow=none;html=1;rounded=0;strokeWidth=3;" edge="1" parent="1">
          <mxGeometry width="50" height="50" relative="1" as="geometry">
            <mxPoint x="150" y="340" as="sourcePoint" />
            <mxPoint x="130" y="340" as="targetPoint" />
          </mxGeometry>
        </mxCell>
        <mxCell id="Xlro1Y_sr61bUB2rgBXT-47" value="" style="endArrow=block;html=1;rounded=1;strokeWidth=3;targetPerimeterSpacing=-1;sourcePerimeterSpacing=-5;jumpStyle=gap;flowAnimation=0;shadow=0;endFill=1;" edge="1" parent="1">
          <mxGeometry width="50" height="50" relative="1" as="geometry">
            <mxPoint x="120" y="360" as="sourcePoint" />
            <mxPoint x="140" y="280" as="targetPoint" />
          </mxGeometry>
        </mxCell>
        <mxCell id="Xlro1Y_sr61bUB2rgBXT-48" value="" style="endArrow=block;html=1;rounded=1;strokeWidth=3;targetPerimeterSpacing=-1;sourcePerimeterSpacing=2;jumpStyle=gap;flowAnimation=0;shadow=0;endFill=1;" edge="1" parent="1">
          <mxGeometry width="50" height="50" relative="1" as="geometry">
            <mxPoint x="100" y="280" as="sourcePoint" />
            <mxPoint x="100" y="360" as="targetPoint" />
          </mxGeometry>
        </mxCell>
        <mxCell id="Xlro1Y_sr61bUB2rgBXT-52" value="" style="endArrow=none;html=1;rounded=0;strokeWidth=3;" edge="1" parent="1">
          <mxGeometry width="50" height="50" relative="1" as="geometry">
            <mxPoint x="188" y="340" as="sourcePoint" />
            <mxPoint x="172" y="340" as="targetPoint" />
          </mxGeometry>
        </mxCell>
        <mxCell id="Xlro1Y_sr61bUB2rgBXT-63" value="" style="endArrow=none;html=1;rounded=0;strokeWidth=3;" edge="1" parent="1">
          <mxGeometry width="50" height="50" relative="1" as="geometry">
            <mxPoint x="180" y="360" as="sourcePoint" />
            <mxPoint x="180" y="340" as="targetPoint" />
          </mxGeometry>
        </mxCell>
        <mxCell id="Xlro1Y_sr61bUB2rgBXT-64" value="" style="endArrow=none;html=1;rounded=0;strokeWidth=3;" edge="1" parent="1">
          <mxGeometry width="50" height="50" relative="1" as="geometry">
            <mxPoint x="208" y="340" as="sourcePoint" />
            <mxPoint x="192" y="340" as="targetPoint" />
          </mxGeometry>
        </mxCell>
        <mxCell id="Xlro1Y_sr61bUB2rgBXT-65" value="" style="endArrow=none;html=1;rounded=0;strokeWidth=3;" edge="1" parent="1">
          <mxGeometry width="50" height="50" relative="1" as="geometry">
            <mxPoint x="200" y="360" as="sourcePoint" />
            <mxPoint x="200" y="340" as="targetPoint" />
          </mxGeometry>
        </mxCell>
        <mxCell id="Xlro1Y_sr61bUB2rgBXT-66" value="" style="endArrow=none;html=1;rounded=0;strokeWidth=3;" edge="1" parent="1">
          <mxGeometry width="50" height="50" relative="1" as="geometry">
            <mxPoint x="228" y="340" as="sourcePoint" />
            <mxPoint x="212" y="340" as="targetPoint" />
          </mxGeometry>
        </mxCell>
        <mxCell id="Xlro1Y_sr61bUB2rgBXT-67" value="" style="endArrow=none;html=1;rounded=0;strokeWidth=3;" edge="1" parent="1">
          <mxGeometry width="50" height="50" relative="1" as="geometry">
            <mxPoint x="220" y="360" as="sourcePoint" />
            <mxPoint x="220" y="340" as="targetPoint" />
          </mxGeometry>
        </mxCell>
        <mxCell id="Xlro1Y_sr61bUB2rgBXT-68" value="" style="endArrow=none;html=1;rounded=0;strokeWidth=3;" edge="1" parent="1">
          <mxGeometry width="50" height="50" relative="1" as="geometry">
            <mxPoint x="220" y="300" as="sourcePoint" />
            <mxPoint x="220" y="280" as="targetPoint" />
          </mxGeometry>
        </mxCell>
        <mxCell id="Xlro1Y_sr61bUB2rgBXT-70" value="" style="endArrow=none;html=1;rounded=0;strokeWidth=3;" edge="1" parent="1">
          <mxGeometry width="50" height="50" relative="1" as="geometry">
            <mxPoint x="180" y="300" as="sourcePoint" />
            <mxPoint x="180" y="280" as="targetPoint" />
          </mxGeometry>
        </mxCell>
        <mxCell id="Xlro1Y_sr61bUB2rgBXT-71" value="" style="endArrow=none;html=1;rounded=0;strokeWidth=3;" edge="1" parent="1">
          <mxGeometry width="50" height="50" relative="1" as="geometry">
            <mxPoint x="188" y="300" as="sourcePoint" />
            <mxPoint x="172" y="300" as="targetPoint" />
          </mxGeometry>
        </mxCell>
        <mxCell id="Xlro1Y_sr61bUB2rgBXT-69" value="" style="endArrow=none;html=1;rounded=0;strokeWidth=3;" edge="1" parent="1">
          <mxGeometry width="50" height="50" relative="1" as="geometry">
            <mxPoint x="228" y="300" as="sourcePoint" />
            <mxPoint x="212" y="300" as="targetPoint" />
          </mxGeometry>
        </mxCell>
        <mxCell id="Xlro1Y_sr61bUB2rgBXT-84" value="" style="endArrow=none;html=1;rounded=0;strokeWidth=3;" edge="1" parent="1">
          <mxGeometry width="50" height="50" relative="1" as="geometry">
            <mxPoint x="288" y="340" as="sourcePoint" />
            <mxPoint x="272" y="340" as="targetPoint" />
          </mxGeometry>
        </mxCell>
        <mxCell id="Xlro1Y_sr61bUB2rgBXT-85" value="" style="endArrow=none;html=1;rounded=0;strokeWidth=3;" edge="1" parent="1">
          <mxGeometry width="50" height="50" relative="1" as="geometry">
            <mxPoint x="280" y="360" as="sourcePoint" />
            <mxPoint x="280" y="340" as="targetPoint" />
          </mxGeometry>
        </mxCell>
        <mxCell id="Xlro1Y_sr61bUB2rgBXT-92" value="" style="endArrow=block;html=1;rounded=1;strokeWidth=3;targetPerimeterSpacing=-1;sourcePerimeterSpacing=2;jumpStyle=gap;flowAnimation=0;shadow=0;endFill=1;" edge="1" parent="1">
          <mxGeometry width="50" height="50" relative="1" as="geometry">
            <mxPoint x="260" y="280" as="sourcePoint" />
            <mxPoint x="260" y="360" as="targetPoint" />
          </mxGeometry>
        </mxCell>
        <mxCell id="Xlro1Y_sr61bUB2rgBXT-93" value="" style="endArrow=block;html=1;rounded=1;strokeWidth=3;targetPerimeterSpacing=-1;sourcePerimeterSpacing=2;jumpStyle=gap;flowAnimation=0;shadow=0;endFill=1;" edge="1" parent="1">
          <mxGeometry width="50" height="50" relative="1" as="geometry">
            <mxPoint x="300" y="280" as="sourcePoint" />
            <mxPoint x="300" y="360" as="targetPoint" />
          </mxGeometry>
        </mxCell>
        <mxCell id="Xlro1Y_sr61bUB2rgBXT-94" value="" style="whiteSpace=wrap;html=1;aspect=fixed;strokeWidth=2;fillColor=none;" vertex="1" parent="1">
          <mxGeometry x="520" y="160" width="80" height="80" as="geometry" />
        </mxCell>
        <mxCell id="Xlro1Y_sr61bUB2rgBXT-95" value="" style="whiteSpace=wrap;html=1;aspect=fixed;strokeWidth=2;fillColor=none;" vertex="1" parent="1">
          <mxGeometry x="520" y="280" width="80" height="80" as="geometry" />
        </mxCell>
        <mxCell id="Xlro1Y_sr61bUB2rgBXT-96" value="" style="endArrow=none;html=1;rounded=0;strokeWidth=2;" edge="1" parent="1">
          <mxGeometry width="50" height="50" relative="1" as="geometry">
            <mxPoint x="690" y="110" as="sourcePoint" />
            <mxPoint x="730" y="110" as="targetPoint" />
            <Array as="points">
              <mxPoint x="680" y="80" />
              <mxPoint x="690" y="110" />
              <mxPoint x="700" y="80" />
              <mxPoint x="710" y="110" />
              <mxPoint x="720" y="80" />
              <mxPoint x="730" y="110" />
              <mxPoint x="740" y="80" />
            </Array>
          </mxGeometry>
        </mxCell>
        <mxCell id="Xlro1Y_sr61bUB2rgBXT-97" value="" style="endArrow=none;html=1;rounded=0;strokeWidth=2;" edge="1" parent="1">
          <mxGeometry width="50" height="50" relative="1" as="geometry">
            <mxPoint x="524.98" y="445" as="sourcePoint" />
            <mxPoint x="525" y="432.5" as="targetPoint" />
          </mxGeometry>
        </mxCell>
        <mxCell id="Xlro1Y_sr61bUB2rgBXT-98" value="" style="triangle;whiteSpace=wrap;html=1;rotation=90;fillColor=light-dark(#000000,#FFFFFF);" vertex="1" parent="1">
          <mxGeometry x="520" y="435" width="10" height="15" as="geometry" />
        </mxCell>
        <mxCell id="Xlro1Y_sr61bUB2rgBXT-100" value="" style="endArrow=none;html=1;rounded=0;strokeWidth=2;" edge="1" parent="1">
          <mxGeometry width="50" height="50" relative="1" as="geometry">
            <mxPoint x="524.98" y="445" as="sourcePoint" />
            <mxPoint x="525" y="432.5" as="targetPoint" />
          </mxGeometry>
        </mxCell>
        <mxCell id="Xlro1Y_sr61bUB2rgBXT-101" value="" style="triangle;whiteSpace=wrap;html=1;rotation=90;fillColor=light-dark(#000000,#FFFFFF);" vertex="1" parent="1">
          <mxGeometry x="520" y="435" width="10" height="15" as="geometry" />
        </mxCell>
        <mxCell id="Xlro1Y_sr61bUB2rgBXT-103" value="" style="triangle;whiteSpace=wrap;html=1;rotation=-90;fillColor=light-dark(#000000,#FFFFFF);" vertex="1" parent="1">
          <mxGeometry x="570" y="420" width="16.25" height="30" as="geometry" />
        </mxCell>
        <mxCell id="Xlro1Y_sr61bUB2rgBXT-104" value="" style="endArrow=none;html=1;rounded=0;strokeWidth=2;" edge="1" parent="1">
          <mxGeometry width="50" height="50" relative="1" as="geometry">
            <mxPoint x="577.98" y="432.5" as="sourcePoint" />
            <mxPoint x="578" y="420" as="targetPoint" />
          </mxGeometry>
        </mxCell>
        <mxCell id="Xlro1Y_sr61bUB2rgBXT-107" value="" style="ellipse;whiteSpace=wrap;html=1;aspect=fixed;strokeWidth=2;fillColor=none;fillStyle=dashed;" vertex="1" parent="1">
          <mxGeometry x="720" y="210" width="20" height="20" as="geometry" />
        </mxCell>
        <mxCell id="Xlro1Y_sr61bUB2rgBXT-108" value="" style="endArrow=none;html=1;rounded=0;strokeWidth=2;" edge="1" parent="1">
          <mxGeometry width="50" height="50" relative="1" as="geometry">
            <mxPoint x="680" y="210" as="sourcePoint" />
            <mxPoint x="730" y="210" as="targetPoint" />
          </mxGeometry>
        </mxCell>
        <mxCell id="Xlro1Y_sr61bUB2rgBXT-109" value="" style="endArrow=none;html=1;rounded=0;strokeWidth=2;" edge="1" parent="1">
          <mxGeometry width="50" height="50" relative="1" as="geometry">
            <mxPoint x="680" y="230" as="sourcePoint" />
            <mxPoint x="730" y="230" as="targetPoint" />
          </mxGeometry>
        </mxCell>
        <mxCell id="Xlro1Y_sr61bUB2rgBXT-110" value="" style="ellipse;whiteSpace=wrap;html=1;aspect=fixed;strokeWidth=2;fillColor=none;fillStyle=dashed;" vertex="1" parent="1">
          <mxGeometry x="727.5" y="217.5" width="5" height="5" as="geometry" />
        </mxCell>
        <mxCell id="Xlro1Y_sr61bUB2rgBXT-111" value="" style="ellipse;whiteSpace=wrap;html=1;aspect=fixed;strokeWidth=2;fillColor=none;fillStyle=dashed;" vertex="1" parent="1">
          <mxGeometry x="720" y="330" width="20" height="20" as="geometry" />
        </mxCell>
        <mxCell id="Xlro1Y_sr61bUB2rgBXT-112" value="" style="endArrow=none;html=1;rounded=0;strokeWidth=2;" edge="1" parent="1">
          <mxGeometry width="50" height="50" relative="1" as="geometry">
            <mxPoint x="680" y="330" as="sourcePoint" />
            <mxPoint x="730" y="330" as="targetPoint" />
          </mxGeometry>
        </mxCell>
        <mxCell id="Xlro1Y_sr61bUB2rgBXT-113" value="" style="endArrow=none;html=1;rounded=0;strokeWidth=2;" edge="1" parent="1">
          <mxGeometry width="50" height="50" relative="1" as="geometry">
            <mxPoint x="680" y="350" as="sourcePoint" />
            <mxPoint x="730" y="350" as="targetPoint" />
          </mxGeometry>
        </mxCell>
        <mxCell id="Xlro1Y_sr61bUB2rgBXT-114" value="" style="ellipse;whiteSpace=wrap;html=1;aspect=fixed;strokeWidth=2;fillColor=none;fillStyle=dashed;" vertex="1" parent="1">
          <mxGeometry x="727.5" y="337.5" width="5" height="5" as="geometry" />
        </mxCell>
        <mxCell id="Xlro1Y_sr61bUB2rgBXT-115" value="" style="endArrow=none;html=1;rounded=0;strokeWidth=2;entryX=0;entryY=0;entryDx=0;entryDy=0;" edge="1" parent="1" target="Xlro1Y_sr61bUB2rgBXT-117">
          <mxGeometry width="50" height="50" relative="1" as="geometry">
            <mxPoint x="730" y="330" as="sourcePoint" />
            <mxPoint x="750" y="310.07" as="targetPoint" />
          </mxGeometry>
        </mxCell>
        <mxCell id="Xlro1Y_sr61bUB2rgBXT-116" value="" style="endArrow=none;html=1;rounded=0;strokeWidth=2;exitX=1;exitY=1;exitDx=0;exitDy=0;entryX=1;entryY=1;entryDx=0;entryDy=0;" edge="1" parent="1" source="Xlro1Y_sr61bUB2rgBXT-111" target="Xlro1Y_sr61bUB2rgBXT-117">
          <mxGeometry width="50" height="50" relative="1" as="geometry">
            <mxPoint x="732.5" y="349.86" as="sourcePoint" />
            <mxPoint x="770" y="310" as="targetPoint" />
          </mxGeometry>
        </mxCell>
        <mxCell id="Xlro1Y_sr61bUB2rgBXT-117" value="" style="ellipse;whiteSpace=wrap;html=1;aspect=fixed;strokeWidth=2;fillColor=none;fillStyle=dashed;" vertex="1" parent="1">
          <mxGeometry x="750" y="300" width="20" height="20" as="geometry" />
        </mxCell>
        <mxCell id="Xlro1Y_sr61bUB2rgBXT-118" value="" style="ellipse;whiteSpace=wrap;html=1;aspect=fixed;strokeWidth=2;fillColor=none;fillStyle=dashed;" vertex="1" parent="1">
          <mxGeometry x="757.5" y="307.5" width="5" height="5" as="geometry" />
        </mxCell>
        <mxCell id="Xlro1Y_sr61bUB2rgBXT-121" value="" style="endArrow=none;html=1;rounded=0;strokeWidth=2;" edge="1" parent="1">
          <mxGeometry width="50" height="50" relative="1" as="geometry">
            <mxPoint x="680" y="450" as="sourcePoint" />
            <mxPoint x="740" y="450" as="targetPoint" />
          </mxGeometry>
        </mxCell>
        <mxCell id="Xlro1Y_sr61bUB2rgBXT-122" value="" style="endArrow=none;html=1;rounded=0;strokeWidth=2;" edge="1" parent="1">
          <mxGeometry width="50" height="50" relative="1" as="geometry">
            <mxPoint x="680" y="470" as="sourcePoint" />
            <mxPoint x="730" y="470" as="targetPoint" />
          </mxGeometry>
        </mxCell>
        <mxCell id="Xlro1Y_sr61bUB2rgBXT-123" value="" style="endArrow=none;html=1;rounded=0;strokeWidth=2;" edge="1" parent="1">
          <mxGeometry width="50" height="50" relative="1" as="geometry">
            <mxPoint x="750" y="430" as="sourcePoint" />
            <mxPoint x="730" y="470" as="targetPoint" />
          </mxGeometry>
        </mxCell>
        <mxCell id="Xlro1Y_sr61bUB2rgBXT-124" value="" style="endArrow=none;html=1;rounded=0;strokeWidth=2;" edge="1" parent="1">
          <mxGeometry width="50" height="50" relative="1" as="geometry">
            <mxPoint x="730" y="470" as="sourcePoint" />
            <mxPoint x="743" y="477" as="targetPoint" />
          </mxGeometry>
        </mxCell>
        <mxCell id="Xlro1Y_sr61bUB2rgBXT-125" value="" style="endArrow=none;html=1;rounded=0;strokeWidth=2;" edge="1" parent="1">
          <mxGeometry width="50" height="50" relative="1" as="geometry">
            <mxPoint x="680" y="570" as="sourcePoint" />
            <mxPoint x="730" y="570" as="targetPoint" />
          </mxGeometry>
        </mxCell>
        <mxCell id="Xlro1Y_sr61bUB2rgBXT-126" value="" style="endArrow=none;html=1;rounded=0;strokeWidth=2;" edge="1" parent="1">
          <mxGeometry width="50" height="50" relative="1" as="geometry">
            <mxPoint x="680" y="590" as="sourcePoint" />
            <mxPoint x="730" y="590" as="targetPoint" />
          </mxGeometry>
        </mxCell>
        <mxCell id="Xlro1Y_sr61bUB2rgBXT-129" value="" style="shape=or;whiteSpace=wrap;html=1;strokeWidth=2;fillColor=none;" vertex="1" parent="1">
          <mxGeometry x="730" y="564" width="20" height="32" as="geometry" />
        </mxCell>
        <mxCell id="Xlro1Y_sr61bUB2rgBXT-130" value="" style="endArrow=none;html=1;rounded=0;strokeWidth=2;" edge="1" parent="1">
          <mxGeometry width="50" height="50" relative="1" as="geometry">
            <mxPoint x="680" y="690" as="sourcePoint" />
            <mxPoint x="740" y="690" as="targetPoint" />
          </mxGeometry>
        </mxCell>
        <mxCell id="Xlro1Y_sr61bUB2rgBXT-131" value="" style="endArrow=none;html=1;rounded=0;strokeWidth=2;" edge="1" parent="1">
          <mxGeometry width="50" height="50" relative="1" as="geometry">
            <mxPoint x="680" y="710" as="sourcePoint" />
            <mxPoint x="730" y="710" as="targetPoint" />
          </mxGeometry>
        </mxCell>
        <mxCell id="Xlro1Y_sr61bUB2rgBXT-132" value="" style="endArrow=none;html=1;rounded=0;strokeWidth=2;" edge="1" parent="1">
          <mxGeometry width="50" height="50" relative="1" as="geometry">
            <mxPoint x="745" y="679" as="sourcePoint" />
            <mxPoint x="729" y="713" as="targetPoint" />
          </mxGeometry>
        </mxCell>
        <mxCell id="Xlro1Y_sr61bUB2rgBXT-134" value="" style="ellipse;whiteSpace=wrap;html=1;aspect=fixed;fillColor=none;strokeWidth=2;" vertex="1" parent="1">
          <mxGeometry x="726" y="713" width="5" height="5" as="geometry" />
        </mxCell>
        <mxCell id="Xlro1Y_sr61bUB2rgBXT-139" value="" style="endArrow=none;html=1;rounded=0;strokeWidth=2;" edge="1" parent="1">
          <mxGeometry width="50" height="50" relative="1" as="geometry">
            <mxPoint x="680" y="830" as="sourcePoint" />
            <mxPoint x="720" y="830" as="targetPoint" />
          </mxGeometry>
        </mxCell>
        <mxCell id="Xlro1Y_sr61bUB2rgBXT-140" value="" style="endArrow=none;html=1;rounded=0;strokeWidth=2;" edge="1" parent="1">
          <mxGeometry width="50" height="50" relative="1" as="geometry">
            <mxPoint x="679.9" y="810" as="sourcePoint" />
            <mxPoint x="719.9" y="810" as="targetPoint" />
          </mxGeometry>
        </mxCell>
        <mxCell id="Xlro1Y_sr61bUB2rgBXT-141" value="" style="endArrow=none;html=1;rounded=0;strokeWidth=2;" edge="1" parent="1">
          <mxGeometry width="50" height="50" relative="1" as="geometry">
            <mxPoint x="719.9" y="831" as="sourcePoint" />
            <mxPoint x="719.9" y="809" as="targetPoint" />
          </mxGeometry>
        </mxCell>
        <mxCell id="Xlro1Y_sr61bUB2rgBXT-144" value="" style="endArrow=none;html=1;rounded=0;strokeWidth=2;" edge="1" parent="1">
          <mxGeometry width="50" height="50" relative="1" as="geometry">
            <mxPoint x="719.9" y="830" as="sourcePoint" />
            <mxPoint x="719.9" y="810" as="targetPoint" />
            <Array as="points">
              <mxPoint x="709.9" y="821" />
            </Array>
          </mxGeometry>
        </mxCell>
        <mxCell id="Xlro1Y_sr61bUB2rgBXT-145" value="" style="endArrow=none;html=1;rounded=0;strokeWidth=2;" edge="1" parent="1">
          <mxGeometry width="50" height="50" relative="1" as="geometry">
            <mxPoint x="720" y="820" as="sourcePoint" />
            <mxPoint x="730" y="820" as="targetPoint" />
          </mxGeometry>
        </mxCell>
        <mxCell id="Xlro1Y_sr61bUB2rgBXT-146" value="" style="endArrow=none;html=1;rounded=0;strokeWidth=2;" edge="1" parent="1">
          <mxGeometry width="50" height="50" relative="1" as="geometry">
            <mxPoint x="570" y="819.8199999999999" as="sourcePoint" />
            <mxPoint x="590" y="819.89" as="targetPoint" />
          </mxGeometry>
        </mxCell>
        <mxCell id="Xlro1Y_sr61bUB2rgBXT-147" value="" style="endArrow=none;html=1;rounded=0;strokeWidth=2;" edge="1" parent="1">
          <mxGeometry width="50" height="50" relative="1" as="geometry">
            <mxPoint x="620" y="830" as="sourcePoint" />
            <mxPoint x="620" y="810" as="targetPoint" />
          </mxGeometry>
        </mxCell>
        <mxCell id="Xlro1Y_sr61bUB2rgBXT-148" value="" style="ellipse;whiteSpace=wrap;html=1;aspect=fixed;fillColor=light-dark(#FFFFFF,#FEFDFF);" vertex="1" parent="1">
          <mxGeometry x="538" y="818" width="4" height="4" as="geometry" />
        </mxCell>
        <mxCell id="Xlro1Y_sr61bUB2rgBXT-151" value="" style="ellipse;whiteSpace=wrap;html=1;aspect=fixed;fillColor=none;" vertex="1" parent="1">
          <mxGeometry x="498" y="818" width="4" height="4" as="geometry" />
        </mxCell>
        <mxCell id="Xlro1Y_sr61bUB2rgBXT-152" value="" style="ellipse;whiteSpace=wrap;html=1;aspect=fixed;fillColor=none;strokeColor=light-dark(#000000,#FFFFFF);strokeWidth=0.2;" vertex="1" parent="1">
          <mxGeometry x="497" y="817" width="6" height="6" as="geometry" />
        </mxCell>
        <mxCell id="Xlro1Y_sr61bUB2rgBXT-154" value="" style="rounded=0;whiteSpace=wrap;html=1;fillColor=none;strokeWidth=2;" vertex="1" parent="1">
          <mxGeometry x="40" y="480" width="160" height="80" as="geometry" />
        </mxCell>
        <mxCell id="Xlro1Y_sr61bUB2rgBXT-155" value="" style="endArrow=none;html=1;rounded=0;strokeWidth=4;" edge="1" parent="1">
          <mxGeometry width="50" height="50" relative="1" as="geometry">
            <mxPoint x="50" y="560" as="sourcePoint" />
            <mxPoint x="50" y="570" as="targetPoint" />
            <Array as="points">
              <mxPoint x="50" y="560" />
            </Array>
          </mxGeometry>
        </mxCell>
        <mxCell id="Xlro1Y_sr61bUB2rgBXT-157" value="" style="endArrow=none;html=1;rounded=0;strokeWidth=4;" edge="1" parent="1">
          <mxGeometry width="50" height="50" relative="1" as="geometry">
            <mxPoint x="50" y="680" as="sourcePoint" />
            <mxPoint x="50" y="690" as="targetPoint" />
            <Array as="points">
              <mxPoint x="50" y="680" />
            </Array>
          </mxGeometry>
        </mxCell>
        <mxCell id="Xlro1Y_sr61bUB2rgBXT-158" value="" style="endArrow=none;html=1;rounded=0;strokeWidth=4;" edge="1" parent="1">
          <mxGeometry width="50" height="50" relative="1" as="geometry">
            <mxPoint x="190" y="680" as="sourcePoint" />
            <mxPoint x="190" y="690" as="targetPoint" />
            <Array as="points">
              <mxPoint x="190" y="680" />
            </Array>
          </mxGeometry>
        </mxCell>
        <mxCell id="Xlro1Y_sr61bUB2rgBXT-159" value="" style="rounded=0;whiteSpace=wrap;html=1;strokeWidth=2;fillColor=none;" vertex="1" parent="1">
          <mxGeometry x="280" y="600" width="16" height="80" as="geometry" />
        </mxCell>
        <mxCell id="Xlro1Y_sr61bUB2rgBXT-160" value="" style="rounded=0;whiteSpace=wrap;html=1;strokeWidth=2;fillColor=none;" vertex="1" parent="1">
          <mxGeometry x="296" y="631.25" width="165" height="17.5" as="geometry" />
        </mxCell>
        <mxCell id="Xlro1Y_sr61bUB2rgBXT-161" value="" style="endArrow=none;html=1;rounded=0;strokeWidth=2;" edge="1" parent="1">
          <mxGeometry width="50" height="50" relative="1" as="geometry">
            <mxPoint x="39" y="680" as="sourcePoint" />
            <mxPoint x="200" y="680" as="targetPoint" />
          </mxGeometry>
        </mxCell>
        <mxCell id="Xlro1Y_sr61bUB2rgBXT-162" value="" style="endArrow=none;html=1;rounded=0;strokeWidth=2;" edge="1" parent="1">
          <mxGeometry width="50" height="50" relative="1" as="geometry">
            <mxPoint x="39" y="600" as="sourcePoint" />
            <mxPoint x="200" y="600" as="targetPoint" />
          </mxGeometry>
        </mxCell>
        <mxCell id="Xlro1Y_sr61bUB2rgBXT-163" value="" style="endArrow=none;html=1;rounded=0;strokeWidth=2;" edge="1" parent="1">
          <mxGeometry width="50" height="50" relative="1" as="geometry">
            <mxPoint x="40" y="680" as="sourcePoint" />
            <mxPoint x="40" y="600" as="targetPoint" />
          </mxGeometry>
        </mxCell>
        <mxCell id="Xlro1Y_sr61bUB2rgBXT-164" value="" style="endArrow=none;html=1;rounded=0;strokeWidth=2;" edge="1" parent="1">
          <mxGeometry width="50" height="50" relative="1" as="geometry">
            <mxPoint x="200" y="681" as="sourcePoint" />
            <mxPoint x="200" y="649" as="targetPoint" />
          </mxGeometry>
        </mxCell>
        <mxCell id="Xlro1Y_sr61bUB2rgBXT-165" value="" style="endArrow=none;html=1;rounded=0;strokeWidth=2;" edge="1" parent="1">
          <mxGeometry width="50" height="50" relative="1" as="geometry">
            <mxPoint x="200" y="631" as="sourcePoint" />
            <mxPoint x="200" y="599" as="targetPoint" />
          </mxGeometry>
        </mxCell>
        <mxCell id="Xlro1Y_sr61bUB2rgBXT-166" value="" style="rounded=0;whiteSpace=wrap;html=1;strokeWidth=2;fillColor=none;" vertex="1" parent="1">
          <mxGeometry x="280" y="480" width="16" height="80" as="geometry" />
        </mxCell>
        <mxCell id="Xlro1Y_sr61bUB2rgBXT-167" value="" style="rounded=0;whiteSpace=wrap;html=1;strokeWidth=2;fillColor=none;" vertex="1" parent="1">
          <mxGeometry x="296" y="511.25" width="165" height="17.5" as="geometry" />
        </mxCell>
        <mxCell id="Xlro1Y_sr61bUB2rgBXT-170" value="" style="endArrow=none;html=1;rounded=0;strokeWidth=2;" edge="1" parent="1">
          <mxGeometry width="50" height="50" relative="1" as="geometry">
            <mxPoint x="496" y="560" as="sourcePoint" />
            <mxPoint x="520" y="480" as="targetPoint" />
            <Array as="points">
              <mxPoint x="520" y="480" />
            </Array>
          </mxGeometry>
        </mxCell>
        <mxCell id="Xlro1Y_sr61bUB2rgBXT-171" value="" style="endArrow=none;html=1;rounded=0;strokeWidth=2;" edge="1" parent="1">
          <mxGeometry width="50" height="50" relative="1" as="geometry">
            <mxPoint x="540" y="560" as="sourcePoint" />
            <mxPoint x="520" y="480" as="targetPoint" />
            <Array as="points">
              <mxPoint x="520" y="480" />
            </Array>
          </mxGeometry>
        </mxCell>
        <mxCell id="Xlro1Y_sr61bUB2rgBXT-172" value="" style="endArrow=none;html=1;rounded=0;strokeWidth=2;" edge="1" parent="1">
          <mxGeometry width="50" height="50" relative="1" as="geometry">
            <mxPoint x="540" y="560" as="sourcePoint" />
            <mxPoint x="564" y="480" as="targetPoint" />
            <Array as="points">
              <mxPoint x="564" y="480" />
            </Array>
          </mxGeometry>
        </mxCell>
        <mxCell id="Xlro1Y_sr61bUB2rgBXT-174" value="" style="endArrow=none;html=1;rounded=0;strokeWidth=2;" edge="1" parent="1">
          <mxGeometry width="50" height="50" relative="1" as="geometry">
            <mxPoint x="584.5" y="560" as="sourcePoint" />
            <mxPoint x="564.5" y="480" as="targetPoint" />
            <Array as="points">
              <mxPoint x="564.5" y="480" />
            </Array>
          </mxGeometry>
        </mxCell>
        <mxCell id="Xlro1Y_sr61bUB2rgBXT-175" value="" style="endArrow=none;html=1;rounded=0;strokeWidth=2;" edge="1" parent="1">
          <mxGeometry width="50" height="50" relative="1" as="geometry">
            <mxPoint x="585" y="560" as="sourcePoint" />
            <mxPoint x="609" y="480" as="targetPoint" />
            <Array as="points">
              <mxPoint x="609" y="480" />
            </Array>
          </mxGeometry>
        </mxCell>
        <mxCell id="Xlro1Y_sr61bUB2rgBXT-176" value="" style="endArrow=none;html=1;rounded=0;strokeWidth=2;exitX=1;exitY=0.5;exitDx=0;exitDy=0;" edge="1" parent="1">
          <mxGeometry width="50" height="50" relative="1" as="geometry">
            <mxPoint x="620" y="520" as="sourcePoint" />
            <mxPoint x="609.5" y="480" as="targetPoint" />
            <Array as="points">
              <mxPoint x="609.5" y="480" />
            </Array>
          </mxGeometry>
        </mxCell>
      </root>
    </mxGraphModel>
  </diagram>
</mxfile>
